<svg version="1.1" id="Layer_1" xmlns="http://www.w3.org/2000/svg" xmlns:xlink="http://www.w3.org/1999/xlink" x="0px" y="0px"
	 width="40px" viewBox="0 0 200 200" enable-background="new 0 0 200 200" xml:space="preserve">
<path fill="#419F60" opacity="1.000000" stroke="none" 
	d="
M126.789177,32.007626 
	C130.795151,33.782841 134.794922,35.026340 137.848129,37.458233 
	C142.117157,40.858532 145.625946,45.200665 149.555298,49.042370 
	C162.134933,61.341377 174.760635,73.593246 187.362808,85.869217 
	C189.420975,87.874115 191.801987,89.662613 193.422882,91.978668 
	C197.436356,97.713478 196.590881,103.820686 191.620987,108.897957 
	C178.140503,122.669693 164.662842,136.444443 151.247528,150.279556 
	C146.874878,154.789032 142.530533,159.346527 138.473846,164.136627 
	C133.417633,170.106964 123.735458,170.359848 117.327118,164.786179 
	C113.817581,161.733780 110.514549,158.384903 107.533974,154.822052 
	C106.719955,153.849014 106.745430,151.134155 107.532204,150.053131 
	C110.059036,146.581253 113.122177,143.499725 116.884117,139.242722 
	C119.634079,142.461304 121.429604,144.833328 123.509766,146.921860 
	C125.618011,149.038559 128.085892,149.366898 130.343674,147.041824 
	C138.696274,138.440308 147.061325,129.849762 155.318756,121.157318 
	C162.254013,113.856728 169.046005,106.420052 176.427216,98.477890 
	C169.234467,91.797806 161.982483,85.288460 154.991394,78.510048 
	C147.100525,70.859207 139.451660,62.959007 131.683273,55.181519 
	C126.920441,50.413105 126.961372,50.476509 122.343781,55.237328 
	C118.401939,59.301430 114.263092,63.174175 110.310898,67.228561 
	C100.345612,77.451477 90.415977,87.709473 80.533615,98.012451 
	C79.436378,99.156380 78.736809,100.681740 77.227921,102.983444 
	C83.633713,108.908699 89.955238,114.756004 96.433861,120.748619 
	C92.440605,125.043999 88.867043,128.887924 85.008247,133.038681 
	C84.233513,132.406631 83.176163,131.682495 82.282936,130.793442 
	C75.033257,123.577690 67.508690,116.604073 60.704803,108.987701 
	C56.847012,104.669235 58.344131,95.166656 62.409267,91.018860 
	C75.896149,77.257751 89.381142,63.494514 102.801308,49.668461 
	C106.942390,45.402130 110.849823,40.909897 114.909035,36.562946 
	C117.994385,33.258896 121.696289,31.395403 126.789177,32.007626 
z"/>
<path fill="#1E6FA5" opacity="1.000000" stroke="none" 
	d="
M143.978882,100.885406 
	C142.038162,104.634933 140.649338,108.491608 138.074677,111.235596 
	C126.594505,123.470764 114.748070,135.361511 103.090675,147.431473 
	C97.450974,153.270752 91.586998,158.945892 86.468658,165.220749 
	C81.852882,170.879471 71.242584,171.672348 65.004822,165.535706 
	C62.273342,162.848511 59.630196,160.071289 56.888744,157.394531 
	C43.809574,144.624023 30.727116,131.856750 17.597284,119.138435 
	C15.953784,117.546448 13.930552,116.351776 12.240791,114.801338 
	C5.302720,108.435326 4.775819,97.707069 11.758621,90.656433 
	C23.822300,78.475571 35.705723,66.116241 47.670635,53.837498 
	C52.955570,48.413940 58.572197,43.273861 63.462036,37.515766 
	C68.788841,31.243124 79.067116,31.815214 84.914650,37.317711 
	C88.781410,40.956310 92.601456,44.644558 96.500359,48.365875 
	C92.033264,52.553024 88.066360,56.271324 83.219093,60.814827 
	C81.901207,59.211071 80.081680,56.884274 78.139870,54.664436 
	C76.057869,52.284348 74.021202,52.485291 71.819290,54.743935 
	C57.432076,69.501907 42.984016,84.200562 28.569660,98.932114 
	C26.129005,101.426468 26.345470,103.861977 28.809298,106.266602 
	C42.957027,120.074333 57.084278,133.903061 71.223663,147.719345 
	C73.779427,150.216690 76.367432,150.279373 78.848335,147.640823 
	C89.465080,136.349548 99.999924,124.980469 110.694641,113.763710 
	C115.043694,109.202370 119.723846,104.956711 125.203568,99.646584 
	C119.333527,94.148346 113.971741,88.974113 108.429634,84.000832 
	C105.757019,81.602531 105.342743,79.715714 108.259331,77.144722 
	C111.225334,74.530167 113.817039,71.490990 116.993172,68.202324 
	C125.513809,76.805710 133.712769,84.809280 141.511002,93.185944 
	C143.106476,94.899757 143.199356,98.012436 143.978882,100.885406 
z"/>
</svg>